Coordinates
version=1
nRows=32
nColumns=12
inDegrees=yes

Units are S.I. units (second, meters, Newtons, ...)
Angles are in degrees

endheader
time	SC_y	SC_z	SC_x	AC_y	AC_z	AC_x	GH_y	GH_z	GH_yy	EL_x	PS_y
       0.0              -57.24          12.24          8.834          62.93          -5.37         -11.49          173.3          80.05           47.5          106.5          113.7
    0.0201              -57.24          12.24          8.841          62.93          -5.37         -11.48          173.3          80.04          47.51          106.5          113.7
    0.0402              -57.24          12.24          8.847          62.93          -5.37         -11.48          173.3          80.02          47.52          106.5          113.7
    0.0603              -57.24          12.24          8.855          62.93          -5.37         -11.48          173.3          80.01          47.53          106.5          113.7
   0.08041              -57.24          12.25          8.863          62.93          -5.37         -11.48          173.3           80.0          47.54          106.5          113.7
    0.1005              -57.24          12.25          8.871          62.93          -5.37         -11.48          173.3          79.98          47.55          106.5          113.7
    0.1206              -57.24          12.25           8.88          62.93          -5.37         -11.47          173.3          79.96          47.56          106.5          113.7
    0.1407              -57.24          12.25          8.889          62.93          -5.37         -11.47          173.3          79.94          47.57          106.4          113.7
    0.1608              -57.24          12.25            8.9          62.92          -5.37         -11.47          173.3          79.93          47.59          106.4          113.7
    0.1809              -57.24          12.25          8.911          62.92          -5.37         -11.46          173.3           79.9           47.6          106.4          113.6
     0.201              -57.24          12.25          8.922          62.92          -5.37         -11.46          173.3          79.88          47.61          106.4          113.6
    0.2211              -57.24          12.25          8.935          62.92          -5.37         -11.46          173.3          79.86          47.63          106.4          113.6
    0.2412              -57.24          12.26          8.949          62.92          -5.37         -11.45          173.3          79.83          47.65          106.4          113.6
    0.2613              -57.24          12.26          8.964          62.92          -5.37         -11.45          173.3           79.8          47.67          106.4          113.6
    0.2814              -57.24          12.26           8.98          62.91          -5.37         -11.44          173.3          79.77          47.69          106.4          113.6
    0.3015              -57.23          12.26          8.997          62.91          -5.37         -11.44          173.3          79.74          47.71          106.4          113.5
    0.3216              -57.23          12.26          9.016          62.91          -5.37         -11.43          173.3          79.71          47.73          106.4          113.5
    0.3417              -57.23          12.27          9.036          62.91          -5.37         -11.43          173.3          79.67          47.76          106.4          113.5
    0.3618              -57.23          12.27          9.059           62.9          -5.37         -11.42          173.3          79.62          47.79          106.4          113.4
    0.3819              -57.23          12.27          9.083           62.9          -5.37         -11.41          173.3          79.58          47.82          106.4          113.4
     0.402              -57.23          12.28           9.11           62.9          -5.37         -11.41          173.3          79.53          47.85          106.4          113.4
    0.4221              -57.23          12.28           9.14          62.89         -5.371          -11.4          173.3          79.47          47.89          106.4          113.3
    0.4422              -57.23          12.28          9.172          62.89         -5.371         -11.39          173.3          79.41          47.93          106.4          113.3
    0.4623              -57.22          12.29          9.209          62.88         -5.371         -11.38          173.3          79.34          47.98          106.4          113.3
    0.4824              -57.22          12.29          9.249          62.88         -5.371         -11.37          173.3          79.26          48.03          106.4          113.2
    0.5025              -57.22           12.3          9.294          62.87         -5.371         -11.35          173.3          79.18          48.09          106.4          113.1
    0.5226              -57.22           12.3          9.344          62.86         -5.371         -11.34          173.3          79.08          48.15          106.4          113.1
    0.5427              -57.22          12.31          9.401          62.86         -5.371         -11.32          173.3          78.98          48.22          106.4          113.0
    0.5628              -57.21          12.32          9.465          62.85         -5.372          -11.3          173.3          78.85           48.3          106.4          112.9
    0.5829              -57.21          12.33          9.538          62.84         -5.372         -11.28          173.3          78.72           48.4          106.4          112.8
     0.603               -57.2          12.34          9.621          62.83         -5.372         -11.26          173.4          78.56           48.5          106.3          112.7
    0.6231               -57.2          12.35          9.716          62.81         -5.372         -11.23          173.4          78.38          48.62          106.3          112.6
